<?xml version="1.0" encoding="UTF-8" standalone="no"?>
<svg
   xmlns:dc="http://purl.org/dc/elements/1.1/"
   xmlns:cc="http://creativecommons.org/ns#"
   xmlns:rdf="http://www.w3.org/1999/02/22-rdf-syntax-ns#"
   xmlns:svg="http://www.w3.org/2000/svg"
   xmlns="http://www.w3.org/2000/svg"
   xmlns:sodipodi="http://sodipodi.sourceforge.net/DTD/sodipodi-0.dtd"
   xmlns:inkscape="http://www.inkscape.org/namespaces/inkscape"
   class="rvt-header__trident-logo"
   viewBox="0 0 41 80"
   aria-describedby="iu-logo"
   aria-hidden="true"
   version="1.1"
   id="svg3748"
   sodipodi:docname="iu-logo-top-tail.svg"
   inkscape:version="0.92.4 (5da689c313, 2019-01-14)">
  <title
     id="iu-logo">Indiana University Logo</title>
  <rect
     width="100%"
     height="100%"
     fill="#900" />
  <polygon
     points="18.16,33.02 18.16,36.52 16.41,36.52 16.41,39.43 24.59,39.43 24.59,36.52 22.84,36.52 22.84,33.02 28,33.02 31.01,30.03 31.01,14.98 32.78,14.98 32.78,12.64 24.59,12.64 24.59,14.98 26.34,14.98 26.34,27.78 22.84,27.78 22.84,10.9 24.59,10.9 24.59,8.57 16.41,8.57 16.41,10.9 18.16,10.9 18.16,27.78 14.66,27.78 14.66,14.98 16.41,14.98 16.41,12.64 8.22,12.64 8.22,14.98 9.97,14.98 9.97,30.03 12.77,33.02 "
     id="polygon3746"
     transform="translate(0,34)"
     style="fill:#ffffff" />
</svg>
